<svg xmlns="http://www.w3.org/2000/svg" viewBox="0 0 57.87 98.3"><defs><style>.cls-1{fill:#36311b;}</style></defs><g id="Слой_2" data-name="Слой 2"><g id="Слой_1-2" data-name="Слой 1"><path class="cls-1" d="M26.82,38.6C19.42,30.69,13,22.09,5.9,14l0-.05c-1.67-2.79-2.16-5.8-2.7-9C3,3.94,2.87,1.29,1.84.65-.76-.95,0,4.73.43,5.76,2.84,12.1,7.5,16.6,11.59,21.89A139.67,139.67,0,0,0,26.48,39,.24.24,0,0,0,26.82,38.6Z"/><path class="cls-1" d="M31.18,65l0-1.85a3.57,3.57,0,0,1-1.88.77,3.57,3.57,0,0,1-1.89-.75L27.51,65,26,65.77A18.17,18.17,0,0,0,26.16,69l.18,3.34L26.7,79l.51,9.46c.15,2.85,0,6,1.08,8.71a1.93,1.93,0,0,0,.84,1.07c1.39.67,1.9-2.09,2.09-2.9a36.57,36.57,0,0,0,.54-6.09c.12-2.23.18-4.45.27-6.68l.54-13.34a21.2,21.2,0,0,0,.14-3.47Z"/><path class="cls-1" d="M31.86,38.91A138.71,138.71,0,0,0,46.53,21.66c4-5.35,8.62-9.9,10.95-16.28.37-1,1.1-6.73-1.48-5.08C55,1,54.9,3.6,54.74,4.6c-.5,3.19-1,6.2-2.59,9l0,0c-7,8.22-13.3,16.9-20.6,24.91C31.31,38.8,31.64,39.13,31.86,38.91Z"/><path class="cls-1" d="M34.19,39.37c-1.22-3.85-8.87-3.77-10,.07-1,3.13-.6,7.39,1.58,8.42a8,8,0,0,0,2.4.67v0a7.35,7.35,0,0,0,1.1,0,7.85,7.85,0,0,0,1.09-.05v0a7.74,7.74,0,0,0,2.39-.7C34.88,46.75,35.17,42.49,34.19,39.37Z"/><path class="cls-1" d="M36,51.26c-2.23-4-11.37-4-13.55.09-1.51,2.82.34,14.85,2.44,16.76a6.79,6.79,0,0,0,8.89,0C35.81,66.11,37.5,54.06,36,51.26Z"/></g></g></svg>