<svg xmlns="http://www.w3.org/2000/svg" viewBox="0 0 70.76 72.51"><defs><style>.cls-1{isolation:isolate;}.cls-2,.cls-4{fill:#47d2f3;}.cls-3{fill:#0d6eb7;}.cls-4,.cls-6{mix-blend-mode:multiply;}.cls-5{fill:#fcdd08;}.cls-6{fill:#b4d2e9;}.cls-7{fill:#36311b;}</style></defs><g class="cls-1"><g id="Слой_2" data-name="Слой 2"><g id="Слой_1-2" data-name="Слой 1"><path class="cls-2" d="M70.76,3.77S41.8-3.42,25.25,3,14,29.85,16,34.12s5.51,7.45,5.11,11S6.37,62.13,3.7,64.18s-5.53,5.28-2.19,7.62S10,70.35,13.67,65.93s5.71-11.38,10.62-14.09,7.4,1.87,16.8-1.08S59.62,33.89,63.83,24C70.05,9.24,70.76,3.77,70.76,3.77Z"/><path class="cls-3" d="M16.33,34.7a29.06,29.06,0,0,1,3.76-6.64c5.52-7.4,14-12.41,22.39-15.84C51.09,8.72,60.65,6.14,70,6.94a28.1,28.1,0,0,0,.73-3.17S41.8-3.42,25.25,3,14,29.85,16,34.12Z"/><path class="cls-4" d="M63.63,14.77a63.29,63.29,0,0,1-7.63,8c-5.3,4.87-11.39,9-16.32,14.26a.32.32,0,0,0,.44.47C46,33.05,51.72,28,57.14,23a66.75,66.75,0,0,0,7-7.6c.58-1.35,1.1-2.6,1.57-3.71C65.07,12.72,64.39,13.77,63.63,14.77Z"/><path class="cls-4" d="M67,6.31c-6.31,4.08-13.15,6.82-20,9.81-5.88,2.56-13.21,5.23-16.21,11.41-.1.21.1.55.35.38C34,26,35.63,23,38.65,21A64.61,64.61,0,0,1,49.06,16c6.47-2.66,13.11-5.18,18.79-9.35l0-.1Z"/><path class="cls-3" d="M44.1,30.72C45.47,36,42.51,42.3,37.94,43.5s-9.6-2.38-11-7.64,1.79-11.29,6.36-12.48S42.72,25.47,44.1,30.72Z"/><ellipse class="cls-5" cx="35.82" cy="32.89" rx="6.17" ry="7.09" transform="translate(-7.17 10.15) rotate(-14.68)"/><path class="cls-6" d="M70.37,3.67C68.65,11.88,59.33,15.9,55,22.53c-2.47,3.79-2.94,8.54-4.48,12.72a16.34,16.34,0,0,1-6.12,8.32c-5.86,3.84-14.21,3.14-18.81-2.3S19.48,28,19.84,21c.32-6.38,2-13.58,6.08-18.7-.26.09-.53.18-.78.28C8.59,9,14,29.15,15.71,33.58c2.18,5.77,5.41,8.75,5,12.28a3.39,3.39,0,0,1-.36,1.06C17.24,51.92,6,62.39,3.7,64.18c-2.66,2-5.53,5.28-2.19,7.62S10,70.35,13.67,65.93s5.71-11.38,10.62-14.09c.22-.13.44-.22.65-.32,4.5-1.86,7.19,3.45,16.16.63C50.5,49.2,59.62,33.89,63.83,24,70.05,9.24,70.76,3.77,70.76,3.77Z"/><path class="cls-7" d="M25.14,2.58C8.59,9,14,29.15,15.71,33.58c2.18,5.77,5.41,8.75,5,12.28S6.37,62.13,3.7,64.18s-5.53,5.28-2.19,7.62S10,70.35,13.67,65.93s5.71-11.38,10.62-14.09,7.41,3.27,16.81.31S59.62,33.89,63.83,24C70.05,9.24,70.76,3.77,70.76,3.77S41.69-3.85,25.14,2.58Zm28.34,35C48.39,45.68,40.36,53.28,31,48.69S20.21,33.82,20.62,23.86s2.79-16.4,14-19.69S67.89,6.52,67.89,6.52,58.57,29.55,53.48,37.62Z"/></g></g></g></svg>