<svg xmlns="http://www.w3.org/2000/svg" viewBox="0 0 72.58 70.02"><defs><style>.cls-1{isolation:isolate;}.cls-2,.cls-3{fill:#47d2f3;}.cls-3,.cls-5{mix-blend-mode:multiply;}.cls-4{fill:#0d6eb7;}.cls-5{fill:#b4d2e9;}.cls-6{fill:#36311b;}.cls-7{fill:#fcdd08;}</style></defs><g class="cls-1"><g id="Слой_2" data-name="Слой 2"><g id="Слой_1-2" data-name="Слой 1"><path class="cls-2" d="M69.82,52.76a55.83,55.83,0,0,1-5.53-10.89c-2.62-6.72-9.23-19.1-18.17-26.75S26.55,1.54,13,.13s-14.41,8.79-12,15.18C4,23.11,11.1,29.59,12.73,34s.76,16.91,4.65,22.24a25.81,25.81,0,0,0,11.09,9.14c3.54,1.58,20.47,3.39,29.15,4.41s13.7-1.16,14.76-2.13S69.82,52.76,69.82,52.76Z"/><path class="cls-3" d="M23.57,41.75c5.73,6.88,14.2,11.13,22.07,15.11,6.69,3.38,17.51,7.22,25,4.92a.35.35,0,0,0-.14-.69c-9.12,1.12-18.71-2.19-26.71-6.33C36.73,51.09,29.31,47.52,24,41.37a.29.29,0,0,0-.44.38Z"/><path class="cls-4" d="M14.45,46.77a26.64,26.64,0,0,0,22.46-13A19.74,19.74,0,0,0,39.08,18.3a29.74,29.74,0,0,0-4.71-9,52.77,52.77,0,0,0-3.53-4.21A55.29,55.29,0,0,0,13,.13C-.46-1.28-1.37,8.92,1.05,15.31,4,23.11,11.1,29.59,12.73,34,13.68,36.5,13.78,41.76,14.45,46.77Z"/><path class="cls-5" d="M72.38,67.63c.34-.32.2-2-.15-4.07-6.38.81-12.88.33-19.3-.27-5.81-.54-11.8-1.22-16.9-4.08-6.56-3.67-10.86-10.69-12.31-18.07-.7-3.5-.86-7.24-2.72-10.29s-5.14-4.91-8.06-7a28.91,28.91,0,0,1-9.47-10.7A18.54,18.54,0,0,1,1.74,3.71c-2.35,3.26-2,8-.69,11.6C4,23.11,11.1,29.59,12.73,34s.76,16.91,4.65,22.24a25.81,25.81,0,0,0,11.09,9.14c3.54,1.58,20.47,3.39,29.15,4.41S71.32,68.6,72.38,67.63Z"/><path class="cls-6" d="M66,45.88c-1.83-3.92-3.09-8-5.21-11.82-3.85-6.91-8.62-13.77-14.67-18.94C37.18,7.47,26.55,1.54,13,.13s-14.41,8.79-12,15.18C4,23.11,11.1,29.59,12.73,34s.76,16.91,4.65,22.24a25.81,25.81,0,0,0,11.09,9.14,41.78,41.78,0,0,0,7.94,1.74c-3.53-1.53-11.06-5.35-15.18-11.65C15.71,47,19.61,37.89,17.55,33.3s-7.76-7-10.38-14.18S9.66,5.72,22,7.35s23.2,11,30.32,19.08c5.4,6.13,12.12,17.18,15,22.16C66.93,47.79,66.47,46.88,66,45.88Z"/><path class="cls-7" d="M32.05,22.73c1.14,4.34-.72,8.6-4.15,9.5s-7.14-1.9-8.28-6.25.72-8.6,4.16-9.5S30.92,18.38,32.05,22.73Z"/></g></g></g></svg>